<?xml version="1.0" encoding="UTF-8"?>
<svg id="Layer_1" xmlns="http://www.w3.org/2000/svg" xmlns:xlink="http://www.w3.org/1999/xlink" version="1.1" viewBox="0 0 555.3 140.9">
  <!-- Generator: Adobe Illustrator 30.2.1, SVG Export Plug-In . SVG Version: 2.1.1 Build 1)  -->
  <defs>
    <style>
      .st0 {
        fill: #00adee;
      }

      .st1 {
        fill: url(#linear-gradient);
      }

      .st2 {
        fill: #fff;
      }
    </style>
    <linearGradient id="linear-gradient" x1="0" y1="70.5" x2="555.3" y2="70.5" gradientUnits="userSpaceOnUse">
      <stop offset="0" stop-color="#25004e"/>
      <stop offset="1" stop-color="#000018"/>
    </linearGradient>
  </defs>
  <path class="st1" d="M484.8,0H70.5C31.6,0,0,31.6,0,70.5s31.6,70.5,70.5,70.5h414.4c38.9,0,70.5-31.6,70.5-70.5S523.7,0,484.8,0Z"/>
  <g>
    <path class="st2" d="M62.9,54h8.1l4.8,19.8,4.7,19.1h.2l5.3-19.1,5.7-19.8h7.5l5.9,19.8,5.4,19.1h.3l4.4-19.1,4.9-19.8h7.8l-12.4,46.5h-9.9l-6.3-21.8-4-13.6h-.2l-3.9,13.6-6.3,21.8h-9.7l-12.5-46.5Z"/>
    <path class="st2" d="M134,77.3c0-14.7,8.2-24.3,21.1-24.3s20.4,9.9,20.4,22.9v3.5h-32.8v1.9c0,7.7,4.8,13.3,13.1,13.3s10.1-2.8,12.6-7.5l5.4,4.6c-3.2,6-10,10.1-18.7,10.1-12.9,0-21.1-9.6-21.1-24.3ZM142.7,72.9v.6h23.9v-.9c0-7.7-4.5-12.9-11.5-12.9s-12.4,5.6-12.4,13.2Z"/>
    <path class="st2" d="M186.8,34.1h8.3v27.6h.4c2.2-5.7,7-8.7,13.4-8.7,11.7,0,18.7,9.2,18.7,24.3s-7,24.3-18.7,24.3-11.2-3-13.4-8.7h-.4v7.6h-8.3V34.1ZM218.7,81.2v-7.9c0-7.8-4.8-13.1-12.2-13.1s-11.3,3.6-11.3,8.5v17.1c0,4.9,5,8.5,11.3,8.5s12.2-5.3,12.2-13.1Z"/>
    <path class="st0" d="M251.4,100.5c-9.1,0-13.2-4.6-13.2-12.9v-53.5h13.3v56.1h5.9v10.3h-6Z"/>
    <path class="st0" d="M264.3,41.8v-2c0-3.8,2.3-6.6,7.7-6.6s7.7,2.8,7.7,6.6v2c0,3.8-2.3,6.6-7.7,6.6s-7.7-2.8-7.7-6.6ZM265.4,53.4h13.3v47.1h-13.3v-47.1Z"/>
    <path class="st0" d="M287.2,93.2l7.8-7.9c3.3,3.7,7.4,6,12.5,6s7-1.7,7-4.5-1.4-3.5-4.8-4l-5.1-.6c-10.7-1.3-15.9-6-15.9-14.5s7.1-15.3,18.3-15.3,14.4,2.7,19.2,7.4l-7.6,7.8c-3-3-6.9-4.8-10.9-4.8s-6.3,1.6-6.3,4,1.1,3.9,4.9,4.4l5.3.7c10.2,1.3,15.5,6,15.5,14.2s-8.1,15.7-20.2,15.7-15-3.1-19.8-8.4Z"/>
    <path class="st0" d="M352,100.5c-9.2,0-14-4.8-14-13.7v-23.1h-6.6v-10.3h3.3c3.6,0,4.7-1.8,4.7-5v-7.7h11.9v12.7h9.3v10.3h-9.3v26.5h8.6v10.3h-7.9Z"/>
    <path class="st0" d="M366.6,76.9c0-14.9,7.9-24.6,22.1-24.6s21.9,11.3,21.9,24.1v4h-30.2v.7c0,6.2,3.3,10.1,10.4,10.1s8.6-2.6,11.6-5.7l6.6,8.3c-4.2,4.8-11.1,7.8-19.7,7.8-14.5,0-22.6-9.6-22.6-24.7ZM380.3,71.8v.7h16.5v-.8c0-5.7-2.6-9.6-7.9-9.6s-8.6,3.9-8.6,9.7Z"/>
    <path class="st0" d="M420,100.5v-47.1h13.3v10.2h.4c1.1-5.2,4.7-10.2,12-10.2h2.3v12.4h-3.3c-7.7,0-11.5,1.7-11.5,7.2v27.6h-13.3Z"/>
    <path class="st0" d="M452.4,93.2l7.8-7.9c3.3,3.7,7.4,6,12.5,6s7-1.7,7-4.5-1.4-3.5-4.8-4l-5.1-.6c-10.7-1.3-15.9-6-15.9-14.5s7.1-15.3,18.3-15.3,14.5,2.7,19.2,7.4l-7.6,7.8c-3-3-6.9-4.8-10.9-4.8s-6.3,1.6-6.3,4,1.1,3.9,4.9,4.4l5.3.7c10.2,1.3,15.5,6,15.5,14.2s-8.1,15.7-20.2,15.7-15-3.1-19.8-8.4Z"/>
  </g>
</svg>
