<?xml version="1.0" encoding="UTF-8"?>
<svg id="Layer_1" xmlns="http://www.w3.org/2000/svg" xmlns:xlink="http://www.w3.org/1999/xlink" version="1.1" viewBox="0 0 561.3 147">
  <!-- Generator: Adobe Illustrator 30.2.1, SVG Export Plug-In . SVG Version: 2.1.1 Build 1)  -->
  <defs>
    <style>
      .st0 {
        fill: url(#linear-gradient);
      }

      .st1 {
        fill: #fff;
      }
    </style>
    <linearGradient id="linear-gradient" x1="1.5" y1="-333.5" x2="559.8" y2="-333.5" gradientTransform="translate(0 -260) scale(1 -1)" gradientUnits="userSpaceOnUse">
      <stop offset="0" stop-color="#25004e"/>
      <stop offset="1" stop-color="#000018"/>
    </linearGradient>
  </defs>
  <path class="st0" d="M73.5,145.4C33.8,145.4,1.5,113.1,1.5,73.4S33.8,1.5,73.5,1.5h414.3c39.7,0,72,32.3,72,72s-32.3,72-72,72H73.5Z"/>
  <path class="st1" d="M487.8,3c38.8,0,70.5,31.6,70.5,70.5s-31.6,70.5-70.5,70.5H73.5c-38.8,0-70.5-31.6-70.5-70.5S34.7,3,73.5,3h414.3M487.8,0H73.5C33,0,0,33,0,73.5s33,73.5,73.5,73.5h414.3c40.5,0,73.5-32.9,73.5-73.5S528.3,0,487.8,0h0Z"/>
  <path class="st1" d="M57.9,57h5.9l4.2,17,4.2,17.2h.2l4.8-17.2,4.9-17h5.4l5.1,17,4.9,17.2h.2l4-17.2,4.3-17h5.7l-10.4,39.3h-7.5l-5.5-18.9-3.4-11.9h-.2l-3.3,11.9-5.5,18.9h-7.4l-10.5-39.3h0Z"/>
  <path class="st1" d="M117.2,76.6c0-12.5,7-20.6,17.7-20.6s17,8.1,17,19.2v2.9h-28.2v1.8c0,6.8,4.3,11.9,11.6,11.9s8.8-2.4,10.8-6.8l4.3,3.1c-2.5,5.3-8.1,9-15.5,9-10.7,0-17.7-8.1-17.7-20.6h0ZM123.6,73.1v.5h21.7v-.8c0-6.9-4.2-11.6-10.4-11.6s-11.3,5-11.3,11.9Z"/>
  <path class="st1" d="M161.9,39.9h6.1v23.4h.3c2.1-4.9,6.1-7.3,11.5-7.3,9.8,0,16,8,16,20.6s-6.2,20.6-16,20.6-9.1-2.4-11.5-7.3h-.3v6.4h-6.1v-56.3h0ZM189.2,80v-6.7c0-7-4.3-11.7-11.1-11.7s-10.1,3.2-10.1,7.5v14.6c0,5.1,4.6,8,10.1,8s11.1-4.7,11.1-11.7h0Z"/>
  <path class="st1" d="M212.5,96.3c-4.2,0-6.5-2.7-6.5-6.3v-50h6.1v51h5.8v5.3h-5.4Z"/>
  <path class="st1" d="M226.1,44.4v-1c0-2.1,1.1-3.4,3.7-3.4s3.7,1.4,3.7,3.4v1c0,2.1-1.1,3.4-3.7,3.4s-3.7-1.4-3.7-3.4ZM226.8,57h6.1v39.3h-6.1v-39.3Z"/>
  <path class="st1" d="M242.1,89.5l4.3-3.5c3,3.8,6.7,6,11.6,6s8.2-2.4,8.2-6.4-1.7-5.4-6.9-6.2l-3.1-.5c-7.2-1.1-12.6-4-12.6-11.3s6-11.6,14-11.6,10.5,2.4,13.7,6.3l-4,3.7c-1.8-2.4-5.1-4.8-10.1-4.8s-7.7,2.4-7.7,6.1,2.7,5.3,7.5,6.1l3,.5c8.7,1.3,12,5.1,12,11s-5.6,12.3-14.5,12.3-12-3-15.5-7.7c0,0,.1,0,.1,0Z"/>
  <path class="st1" d="M291,96.3c-4.2,0-6.5-2.7-6.5-6.5v-27.5h-6.5v-5.3h3.6c2.6,0,3.4-.9,3.4-3.6v-7.3h5.5v10.9h8.6v5.3h-8.6v28.6h8v5.3h-7.6.1Z"/>
  <path class="st1" d="M305.9,76.6c0-12.5,7-20.6,17.7-20.6s17,8.1,17,19.2v2.9h-28.2v1.8c0,6.8,4.3,11.9,11.6,11.9s8.8-2.4,10.8-6.8l4.3,3.1c-2.5,5.3-8.1,9-15.5,9-10.7,0-17.7-8.1-17.7-20.6h0ZM312.3,73.1v.5h21.7v-.8c0-6.9-4.2-11.6-10.4-11.6s-11.3,5-11.3,11.9h0Z"/>
  <path class="st1" d="M350.6,96.3v-39.3h6.1v7.2h.4c1.4-3.7,5-7.2,11.3-7.2h2.4v6.1h-3.6c-6.5,0-10.5,2.8-10.5,6.6v26.6h-6.1,0Z"/>
  <path class="st1" d="M374.8,89.5l4.3-3.5c3,3.8,6.7,6,11.6,6s8.2-2.4,8.2-6.4-1.7-5.4-6.9-6.2l-3.1-.5c-7.2-1.1-12.6-4-12.6-11.3s6-11.6,14-11.6,10.5,2.4,13.7,6.3l-4,3.7c-1.8-2.4-5.1-4.8-10.1-4.8s-7.7,2.4-7.7,6.1,2.7,5.3,7.5,6.1l3,.5c8.7,1.3,12,5.1,12,11s-5.6,12.3-14.5,12.3-12-3-15.5-7.7c0,0,.1,0,.1,0Z"/>
  <path class="st1" d="M415.3,93.5v-.8c0-2.1,1.1-3.4,3.6-3.4s3.6,1.4,3.6,3.4v.8c0,2.1-1.2,3.4-3.6,3.4s-3.6-1.4-3.6-3.4Z"/>
  <path class="st1" d="M468,96.3l-4.3-13.6h-18.9l-4.2,13.6h-10.2l17.8-53.1h12.5l17.7,53.1h-10.4ZM454.5,52.3h-.4l-6.8,21.8h14l-6.9-21.8h0Z"/>
  <path class="st1" d="M484.1,96.3v-8.1h7v-37h-7v-8.1h24.1v8.1h-7.1v37h7.1v8.1h-24.1Z"/>
</svg>